<?xml version="1.0" encoding="UTF-8" standalone="no"?>
<!-- Created with Inkscape (http://www.inkscape.org/) -->

<svg
   xmlns:dc="http://purl.org/dc/elements/1.1/"
   xmlns:cc="http://creativecommons.org/ns#"
   xmlns:rdf="http://www.w3.org/1999/02/22-rdf-syntax-ns#"
   xmlns:svg="http://www.w3.org/2000/svg"
   xmlns="http://www.w3.org/2000/svg"
   xmlns:sodipodi="http://sodipodi.sourceforge.net/DTD/sodipodi-0.dtd"
   xmlns:inkscape="http://www.inkscape.org/namespaces/inkscape"
   version="1.1"
   id="svg2"
   xml:space="preserve"
   width="321.26001"
   height="321.26001"
   viewBox="0 0 321.26001 321.26001"
   sodipodi:docname="in_twitter_gray_v2.svg"
   inkscape:version="0.92.4 (5da689c313, 2019-01-14)"><metadata
     id="metadata8"><rdf:RDF><cc:Work
         rdf:about=""><dc:format>image/svg+xml</dc:format><dc:type
           rdf:resource="http://purl.org/dc/dcmitype/StillImage" /><dc:title></dc:title></cc:Work></rdf:RDF></metadata><defs
     id="defs6"><clipPath
       clipPathUnits="userSpaceOnUse"
       id="clipPath18"><path
         d="M 0,240.945 H 240.945 V 0 H 0 Z"
         id="path16"
         inkscape:connector-curvature="0" /></clipPath><clipPath
       clipPathUnits="userSpaceOnUse"
       id="clipPath30"><path
         d="M 0,240.945 H 240.945 V 0 H 0 Z"
         id="path28"
         inkscape:connector-curvature="0" /></clipPath></defs><sodipodi:namedview
     pagecolor="#ffffff"
     bordercolor="#666666"
     borderopacity="1"
     objecttolerance="10"
     gridtolerance="10"
     guidetolerance="10"
     inkscape:pageopacity="0"
     inkscape:pageshadow="2"
     inkscape:window-width="1920"
     inkscape:window-height="1013"
     id="namedview4"
     showgrid="false"
     inkscape:zoom="0.73460746"
     inkscape:cx="-259.32217"
     inkscape:cy="160.63"
     inkscape:window-x="1911"
     inkscape:window-y="-9"
     inkscape:window-maximized="1"
     inkscape:current-layer="g10" /><g
     id="g10"
     inkscape:groupmode="layer"
     inkscape:label="in_twitter_gray_v2"
     transform="matrix(1.3333333,0,0,-1.3333333,0,321.26)"><g
       id="twitter"
       style="display:inline"><g
         id="g14"
         clip-path="url(#clipPath18)"><g
           id="g20"
           transform="translate(75.9507,7.3945)"><path
             d="m 0,0 c 90.56,0 140.092,75.028 140.092,140.093 0,2.131 0,4.252 -0.143,6.364 9.635,6.97 17.954,15.6 24.564,25.486 -8.986,-3.982 -18.518,-6.593 -28.279,-7.747 10.278,6.154 17.971,15.832 21.646,27.234 -9.665,-5.736 -20.239,-9.777 -31.265,-11.951 -18.647,19.827 -49.836,20.784 -69.664,2.138 -12.787,-12.026 -18.212,-29.945 -14.243,-47.044 -39.589,1.985 -76.474,20.683 -101.475,51.443 -13.068,-22.498 -6.393,-51.279 15.244,-65.727 -7.835,0.232 -15.5,2.346 -22.347,6.163 v -0.624 c 0.006,-23.437 16.527,-43.624 39.501,-48.265 -7.249,-1.977 -14.854,-2.266 -22.232,-0.845 6.45,-20.057 24.935,-33.797 46,-34.193 -17.435,-13.702 -38.973,-21.14 -61.148,-21.118 -3.917,0.007 -7.831,0.244 -11.721,0.71 C -52.953,7.668 -26.754,0.003 0,0.039"
             style="fill:#7c868d;fill-opacity:1;fill-rule:nonzero;stroke:none"
             id="path22"
             inkscape:connector-curvature="0" /></g></g></g><g
       id="linkedin"
       style="display:inline"><g
         id="g26"
         clip-path="url(#clipPath30)"><g
           id="g32"
           transform="translate(34.4272,233.5502)"><path
             d="m 0,0 c 15.019,0 27.212,-12.198 27.212,-27.225 0,-15.032 -12.193,-27.229 -27.212,-27.229 -15.079,0 -27.238,12.197 -27.238,27.229 C -27.238,-12.198 -15.079,0 0,0 m -23.503,-75.093 h 46.988 v -151.062 h -46.988 z"
             style="fill:#7c868d;fill-opacity:1;fill-rule:nonzero;stroke:none"
             id="path34"
             inkscape:connector-curvature="0" /></g><g
           id="g36"
           transform="translate(87.3657,158.457)"><path
             d="m 0,0 h 45.004 v -20.651 h 0.644 c 6.26,11.876 21.588,24.4 44.429,24.4 47.529,0 56.313,-31.279 56.313,-71.964 v -82.847 H 99.455 v 73.461 c 0,17.518 -0.31,40.055 -24.405,40.055 -24.43,0 -28.156,-19.094 -28.156,-38.801 v -74.715 H 0 Z"
             style="fill:#7c868d;fill-opacity:1;fill-rule:nonzero;stroke:none"
             id="path38"
             inkscape:connector-curvature="0" /></g></g></g></g></svg>