<?xml version="1.0" encoding="UTF-8" standalone="no"?>
<!-- Created with Inkscape (http://www.inkscape.org/) -->

<svg
   xmlns:dc="http://purl.org/dc/elements/1.1/"
   xmlns:cc="http://creativecommons.org/ns#"
   xmlns:rdf="http://www.w3.org/1999/02/22-rdf-syntax-ns#"
   xmlns:svg="http://www.w3.org/2000/svg"
   xmlns="http://www.w3.org/2000/svg"
   xmlns:sodipodi="http://sodipodi.sourceforge.net/DTD/sodipodi-0.dtd"
   xmlns:inkscape="http://www.inkscape.org/namespaces/inkscape"
   version="1.1"
   id="svg2"
   xml:space="preserve"
   width="867.25336"
   height="76.58667"
   viewBox="0 0 867.25336 76.58667"
   sodipodi:docname="shirre_logo.svg"
   inkscape:version="0.92.4 (5da689c313, 2019-01-14)"><metadata
     id="metadata8"><rdf:RDF><cc:Work
         rdf:about=""><dc:format>image/svg+xml</dc:format><dc:type
           rdf:resource="http://purl.org/dc/dcmitype/StillImage" /><dc:title></dc:title></cc:Work></rdf:RDF></metadata><defs
     id="defs6" /><sodipodi:namedview
     pagecolor="#ffffff"
     bordercolor="#666666"
     borderopacity="1"
     objecttolerance="10"
     gridtolerance="10"
     guidetolerance="10"
     inkscape:pageopacity="0"
     inkscape:pageshadow="2"
     inkscape:window-width="1920"
     inkscape:window-height="1013"
     id="namedview4"
     showgrid="false"
     inkscape:zoom="0.43239959"
     inkscape:cx="433.62668"
     inkscape:cy="38.293335"
     inkscape:window-x="-9"
     inkscape:window-y="-9"
     inkscape:window-maximized="1"
     inkscape:current-layer="g10" /><g
     id="g10"
     inkscape:groupmode="layer"
     inkscape:label="ink_ext_XXXXXX"
     transform="matrix(1.3333333,0,0,-1.3333333,0,76.586667)"><g
       id="g12"
       transform="scale(0.1)"><path
         d="m 2744.46,346.305 h 29.5 v -21.168 h -81.76 v 21.168 h 29.18 v 186.609 h -29.18 v 21.168 h 161.6 v -59.648 h -23.09 v 38.48 h -86.25 v -83.367 h 87.22 v -18.918 h -87.22 v -84.324"
         style="fill:#75828b;fill-opacity:1;fill-rule:nonzero;stroke:none"
         id="path14"
         inkscape:connector-curvature="0" /><path
         d="m 3028.55,384.137 v -59 h -150.39 v 21.168 h 29.18 v 186.609 h -29.18 v 21.168 h 81.45 v -21.168 h -29.18 V 346.305 h 75.03 v 37.832 h 23.09"
         style="fill:#75828b;fill-opacity:1;fill-rule:nonzero;stroke:none"
         id="path16"
         inkscape:connector-curvature="0" /><path
         d="m 3223.82,401.129 c 0,-21.16 -3.52,-39.441 -18.27,-56.434 -14.12,-15.711 -34.64,-24.047 -56.12,-24.047 -21.48,0 -41.36,7.375 -56.11,23.403 -16.35,17.961 -18.92,36.875 -18.92,59.961 v 128.902 h -29.18 v 21.168 h 79.84 v -21.168 h -27.58 v -126.34 c 0,-15.383 0.64,-29.488 9.62,-42.64 9.95,-13.789 25.02,-20.204 42.01,-20.204 15.71,0 29.82,5.458 39.76,17.637 10.59,13.465 11.86,28.539 11.86,44.899 v 126.648 h -27.57 v 21.168 H 3253 v -21.168 h -29.18 V 401.129"
         style="fill:#75828b;fill-opacity:1;fill-rule:nonzero;stroke:none"
         id="path18"
         inkscape:connector-curvature="0" /><path
         d="m 3489.95,440.887 c 0,52.59 -43.28,96.191 -96.84,96.191 -53.85,0 -97.79,-42.957 -97.79,-96.191 0,-53.867 43.29,-97.157 97.47,-97.157 v -0.312 c 53.88,0.312 97.16,43.926 97.16,97.469 z m -217.72,-0.645 c 0,66.699 53.87,119.934 120.88,119.934 65.75,0 119.93,-53.235 119.93,-118.324 0,-66.696 -52.91,-121.204 -119.93,-121.204 -66.69,0 -120.88,53.227 -120.88,119.594"
         style="fill:#75828b;fill-opacity:1;fill-rule:nonzero;stroke:none"
         id="path20"
         inkscape:connector-curvature="0" /><path
         d="m 3724.66,325.137 h -44.57 l -70.87,98.758 h 8.65 c 17.31,0 34,-0.637 49.06,8.66 16.04,9.937 25.66,27.254 25.66,45.847 0,16.032 -5.77,30.782 -17.31,41.368 -13.47,12.503 -28.23,13.144 -45.54,13.144 h -44.9 V 346.305 h 27.27 v -21.168 h -79.86 v 21.168 h 29.51 v 186.609 h -29.51 v 21.168 h 99.1 c 22.12,0 40.72,-1.93 58.36,-17.004 17.31,-14.746 25.96,-35.265 25.96,-57.707 0,-38.805 -30.13,-70.543 -69.26,-70.543 l 47.78,-62.523 h 30.47 v -21.168"
         style="fill:#75828b;fill-opacity:1;fill-rule:nonzero;stroke:none"
         id="path22"
         inkscape:connector-curvature="0" /><path
         d="m 3958.09,440.887 c 0,52.59 -43.3,96.191 -96.84,96.191 -53.87,0 -97.79,-42.957 -97.79,-96.191 0,-53.867 43.28,-97.157 97.47,-97.157 v -0.312 c 53.86,0.312 97.16,43.926 97.16,97.469 z m -217.73,-0.645 c 0,66.699 53.88,119.934 120.89,119.934 65.73,0 119.92,-53.235 119.92,-118.324 0,-66.696 -52.91,-121.204 -119.92,-121.204 -66.69,0 -120.89,53.227 -120.89,119.594"
         style="fill:#75828b;fill-opacity:1;fill-rule:nonzero;stroke:none"
         id="path24"
         inkscape:connector-curvature="0" /><path
         d="m 4009.55,398.242 v 21.164 h 79.52 v -21.164 h -79.52"
         style="fill:#75828b;fill-opacity:1;fill-rule:nonzero;stroke:none"
         id="path26"
         inkscape:connector-curvature="0" /><path
         d="m 4202.84,346.305 c 14.75,0 29.49,0 41.36,7.687 11.54,7.375 15.72,22.77 15.72,35.914 0,14.43 -6.42,28.535 -18.28,36.875 -12.51,8.657 -26.61,8.657 -41.37,8.657 h -36.86 v -89.133 z m -4.17,109.011 c 14.11,0 25.33,-0.324 36.88,9.301 9.29,7.696 13.45,18.278 13.45,30.461 0,12.508 -4.8,24.051 -15.07,31.426 -10.25,7.379 -22.11,6.41 -34.3,6.41 h -36.22 v -77.598 z m 6.73,98.766 c 15.71,0 31.11,-1.285 44.25,-11.23 14.75,-11.223 22.44,-26.93 22.44,-45.211 0,-21.481 -12.49,-40.719 -31.74,-50.02 26.61,-9.617 42.66,-32.383 42.66,-60.601 0,-17.313 -7.06,-34.633 -19.89,-46.489 -15.06,-13.793 -32.07,-15.394 -51.95,-15.394 h -100.04 v 21.168 h 29.18 v 186.609 h -29.18 v 21.168 h 94.27"
         style="fill:#75828b;fill-opacity:1;fill-rule:nonzero;stroke:none"
         id="path28"
         inkscape:connector-curvature="0" /><path
         d="m 4424.73,528.109 -46.82,-110.308 h 92.67 z m 45.52,-202.972 v 21.168 h 29.82 l -22.77,52.582 h -106.13 l -23.41,-52.582 h 28.86 v -21.168 h -81.77 v 21.168 h 28.54 l 83.05,186.609 h -30.45 v 21.168 h 59.96 l 89.77,-207.777 h 28.55 v -21.168 h -84.02"
         style="fill:#75828b;fill-opacity:1;fill-rule:nonzero;stroke:none"
         id="path30"
         inkscape:connector-curvature="0" /><path
         d="m 4678.67,499.246 c -2.89,25.977 -21.8,40.719 -45.53,40.719 -23.09,0 -43.92,-16.031 -43.92,-40.074 0,-12.188 5.12,-24.375 15.06,-31.746 10.26,-7.692 25.66,-10.579 38.15,-13.461 16.68,-3.856 32.39,-7.704 45.86,-19.246 14.11,-11.543 21.47,-28.54 21.47,-46.497 0,-15.711 -2.88,-28.531 -13.13,-41.359 -14.43,-18.281 -32.71,-26.934 -57.08,-26.934 -21.15,0 -40.08,8.973 -51.94,26.934 v -22.445 h -19.24 v 61.562 h 19.24 c 2.88,-27.254 22.44,-45.211 50.98,-45.211 25.97,0 48.1,18.598 48.1,45.211 0,33.348 -25.98,41.043 -53.22,47.774 -15.72,4.175 -30.15,7.058 -43.62,17 -15.71,11.543 -23.73,28.535 -23.73,47.773 0,16.356 5.46,27.574 11.87,36.231 12.18,16.675 33.99,24.699 55.48,24.699 17.95,0 37.51,-8.024 45.2,-24.699 v 18.605 h 19.25 v -54.836 h -19.25"
         style="fill:#75828b;fill-opacity:1;fill-rule:nonzero;stroke:none"
         id="path32"
         inkscape:connector-curvature="0" /><path
         d="m 4891.26,384.137 v -59 h -161.29 v 21.168 h 29.18 v 186.609 h -29.18 v 21.168 h 161.29 v -59.004 h -23.09 v 37.836 h -85.92 v -82.723 h 88.48 v -18.918 h -88.48 v -84.968 h 85.92 v 37.832 h 23.09"
         style="fill:#75828b;fill-opacity:1;fill-rule:nonzero;stroke:none"
         id="path34"
         inkscape:connector-curvature="0" /><path
         d="m 5009.89,346.305 c 27.58,0 50.34,4.48 69.89,25.324 16.69,17.633 26.95,43.285 26.95,67.656 0,25.656 -9.93,52.586 -28.86,70.543 -20.2,19.238 -39.76,23.086 -67.01,23.086 h -45.85 V 346.305 Z m -67.98,186.609 h -29.5 v 21.168 h 101.97 c 32.71,0 57.4,-7.699 81.45,-31.109 22.44,-22.125 33.98,-52.582 33.98,-84.008 0,-30.137 -11.86,-59.317 -32.71,-81.442 -23.41,-24.691 -49.38,-32.386 -82.72,-32.386 h -101.97 v 21.168 h 29.5 v 186.609"
         style="fill:#75828b;fill-opacity:1;fill-rule:nonzero;stroke:none"
         id="path36"
         inkscape:connector-curvature="0" /><path
         d="m 2789.35,25.6563 c 27.58,0 50.34,4.4882 69.9,25.3281 16.67,17.6367 26.94,43.289 26.94,67.6636 0,25.649 -9.95,52.582 -28.86,70.54 -20.2,19.234 -39.76,23.085 -67.02,23.085 h -45.85 V 25.6563 Z m -67.97,186.6167 h -29.51 v 21.165 h 101.97 c 32.71,0 57.39,-7.7 81.45,-31.11 22.44,-22.117 33.99,-52.582 33.99,-84.004 0,-30.1443 -11.87,-59.3279 -32.71,-81.4451 C 2853.16,12.1875 2827.19,4.49609 2793.84,4.49609 H 2691.87 V 25.6563 h 29.51 V 212.273"
         style="fill:#75828b;fill-opacity:1;fill-rule:nonzero;stroke:none"
         id="path38"
         inkscape:connector-curvature="0" /><path
         d="m 2975.32,25.6563 h 29.18 V 4.49609 h -81.44 V 25.6563 h 29.17 V 212.273 h -29.17 v 21.165 h 81.44 v -21.165 h -29.18 V 25.6563"
         style="fill:#75828b;fill-opacity:1;fill-rule:nonzero;stroke:none"
         id="path40"
         inkscape:connector-curvature="0" /><path
         d="M 3193.35,63.4961 V 4.49609 H 3032.07 V 25.6563 h 29.18 V 212.273 h -29.18 v 21.165 h 161.28 v -59 h -23.08 v 37.835 h -85.93 v -82.726 h 88.49 v -18.914 h -88.49 V 25.6563 h 85.93 v 37.8398 h 23.08"
         style="fill:#75828b;fill-opacity:1;fill-rule:nonzero;stroke:none"
         id="path42"
         inkscape:connector-curvature="0" /><path
         d="M 3371.26,63.4961 V 4.49609 H 3220.87 V 25.6563 h 29.18 V 212.273 h -29.18 v 21.165 h 81.45 v -21.165 h -29.18 V 25.6563 h 75.03 v 37.8398 h 23.09"
         style="fill:#75828b;fill-opacity:1;fill-rule:nonzero;stroke:none"
         id="path44"
         inkscape:connector-curvature="0" /><path
         d="M 3552.1,63.4961 V 4.49609 H 3390.81 V 25.6563 h 29.18 V 212.273 h -29.18 v 21.165 h 161.29 v -59 h -23.09 v 37.835 h -85.92 v -82.726 h 88.49 v -18.914 h -88.49 V 25.6563 h 85.92 v 37.8398 h 23.09"
         style="fill:#75828b;fill-opacity:1;fill-rule:nonzero;stroke:none"
         id="path46"
         inkscape:connector-curvature="0" /><path
         d="m 3778.15,177.645 c -16.99,25.652 -48.41,38.789 -78.87,38.789 -53.56,0 -96.52,-41.996 -96.52,-95.547 0,-52.9104 41.37,-97.8011 95.87,-97.8011 32.07,0 61.56,15.0704 80.17,41.3672 h 25.65 C 3785.2,24.6953 3743.2,0 3699.28,0 c -31.44,0 -62.53,13.1523 -84.65,34.9492 -23.41,23.086 -34.96,53.5508 -34.96,85.9378 0,32.707 13.47,62.207 35.92,85.617 20.19,20.844 50.66,33.027 83.36,33.027 30.79,0 59.33,-10.91 79.2,-33.027 v 26.934 h 21.18 v -55.793 h -21.18"
         style="fill:#75828b;fill-opacity:1;fill-rule:nonzero;stroke:none"
         id="path48"
         inkscape:connector-curvature="0" /><path
         d="m 3918.91,25.6563 h 29.18 V 4.49609 h -81.44 V 25.6563 h 29.17 V 212.273 h -49.7 v -40.078 h -19.87 v 61.243 h 162.24 v -61.243 h -19.88 v 40.078 h -49.7 V 25.6563"
         style="fill:#75828b;fill-opacity:1;fill-rule:nonzero;stroke:none"
         id="path50"
         inkscape:connector-curvature="0" /><path
         d="m 4202.04,4.49609 h -44.58 L 4086.6,103.25 h 8.65 c 17.32,0 34,-0.645 49.07,8.656 16.03,9.949 25.65,27.258 25.65,45.852 0,16.035 -5.77,30.785 -17.31,41.363 -13.47,12.508 -28.23,13.152 -45.54,13.152 h -44.89 V 25.6563 h 27.25 V 4.49609 h -79.84 V 25.6563 h 29.5 V 212.273 h -29.5 v 21.165 h 99.09 c 22.12,0 40.72,-1.93 58.36,-17.004 17.31,-14.75 25.97,-35.274 25.97,-57.715 0,-38.797 -30.15,-70.5393 -69.27,-70.5393 l 47.78,-62.5234 h 30.47 V 4.49609"
         style="fill:#75828b;fill-opacity:1;fill-rule:nonzero;stroke:none"
         id="path52"
         inkscape:connector-curvature="0" /><path
         d="m 4270.34,25.6563 h 29.18 V 4.49609 h -81.45 V 25.6563 h 29.18 V 212.273 h -29.18 v 21.165 h 81.45 v -21.165 h -29.18 V 25.6563"
         style="fill:#75828b;fill-opacity:1;fill-rule:nonzero;stroke:none"
         id="path54"
         inkscape:connector-curvature="0" /><path
         d="m 4515.61,177.645 c -16.99,25.652 -48.41,38.789 -78.87,38.789 -53.55,0 -96.52,-41.996 -96.52,-95.547 0,-52.9104 41.37,-97.8011 95.87,-97.8011 32.07,0 61.57,15.0704 80.17,41.3672 h 25.65 C 4522.67,24.6953 4480.67,0 4436.74,0 c -31.43,0 -62.53,13.1523 -84.65,34.9492 -23.41,23.086 -34.96,53.5508 -34.96,85.9378 0,32.707 13.47,62.207 35.92,85.617 20.19,20.844 50.66,33.027 83.37,33.027 30.78,0 59.32,-10.91 79.19,-33.027 v 26.934 h 21.18 v -55.793 h -21.18"
         style="fill:#75828b;fill-opacity:1;fill-rule:nonzero;stroke:none"
         id="path56"
         inkscape:connector-curvature="0" /><path
         d="m 4707.99,25.6563 h 30.14 V 4.49609 h -82.4 V 25.6563 h 29.17 V 212.273 h -29.17 v 21.165 h 64.12 l 83.06,-194.313 91.06,194.313 h 63.49 v -21.165 h -29.5 V 25.6563 h 29.5 V 4.49609 h -82.09 V 25.6563 h 29.5 V 203.941 L 4811.24,4.49609 h -17.96 L 4707.99,203.297 V 25.6563"
         style="fill:#75828b;fill-opacity:1;fill-rule:nonzero;stroke:none"
         id="path58"
         inkscape:connector-curvature="0" /><path
         d="M 5099.18,207.469 5052.36,97.1563 h 92.66 z M 5144.7,4.49609 V 25.6563 h 29.82 l -22.76,52.5898 h -106.14 l -23.4,-52.5898 h 28.85 V 4.49609 h -81.76 V 25.6563 h 28.54 l 83.05,186.6167 h -30.46 v 21.165 h 59.96 l 89.78,-207.7817 h 28.54 V 4.49609 h -84.02"
         style="fill:#75828b;fill-opacity:1;fill-rule:nonzero;stroke:none"
         id="path60"
         inkscape:connector-curvature="0" /><path
         d="m 5318.38,25.6563 h 29.18 V 4.49609 h -81.45 V 25.6563 h 29.18 V 212.273 h -49.69 v -40.078 h -19.89 v 61.243 h 162.25 v -61.243 h -19.88 v 40.078 h -49.7 V 25.6563"
         style="fill:#75828b;fill-opacity:1;fill-rule:nonzero;stroke:none"
         id="path62"
         inkscape:connector-curvature="0" /><path
         d="M 5573.23,63.4961 V 4.49609 H 5411.94 V 25.6563 h 29.18 V 212.273 h -29.18 v 21.165 h 161.29 v -59 h -23.08 v 37.835 h -85.93 v -82.726 h 88.48 v -18.914 h -88.48 V 25.6563 h 85.93 v 37.8398 h 23.08"
         style="fill:#75828b;fill-opacity:1;fill-rule:nonzero;stroke:none"
         id="path64"
         inkscape:connector-curvature="0" /><path
         d="m 5793.52,4.49609 h -44.58 L 5678.08,103.25 h 8.66 c 17.31,0 33.99,-0.645 49.05,8.656 16.04,9.949 25.66,27.258 25.66,45.852 0,16.035 -5.77,30.785 -17.31,41.363 -13.48,12.508 -28.22,13.152 -45.54,13.152 h -44.89 V 25.6563 h 27.26 V 4.49609 h -79.85 V 25.6563 h 29.5 V 212.273 h -29.5 v 21.165 h 99.09 c 22.12,0 40.72,-1.93 58.35,-17.004 17.32,-14.75 25.98,-35.274 25.98,-57.715 0,-38.797 -30.15,-70.5393 -69.27,-70.5393 l 47.78,-62.5234 h 30.47 V 4.49609"
         style="fill:#75828b;fill-opacity:1;fill-rule:nonzero;stroke:none"
         id="path66"
         inkscape:connector-curvature="0" /><path
         d="m 5871.44,25.6563 h 29.17 V 4.49609 h -81.44 V 25.6563 h 29.17 V 212.273 h -29.17 v 21.165 h 81.44 v -21.165 h -29.17 V 25.6563"
         style="fill:#75828b;fill-opacity:1;fill-rule:nonzero;stroke:none"
         id="path68"
         inkscape:connector-curvature="0" /><path
         d="M 6049.38,207.469 6002.57,97.1563 h 92.66 z M 6094.91,4.49609 V 25.6563 h 29.83 l -22.77,52.5898 h -106.14 l -23.4,-52.5898 h 28.85 V 4.49609 h -81.76 V 25.6563 h 28.54 l 83.04,186.6167 h -30.45 v 21.165 h 59.95 l 89.78,-207.7817 h 28.55 V 4.49609 h -84.02"
         style="fill:#75828b;fill-opacity:1;fill-rule:nonzero;stroke:none"
         id="path70"
         inkscape:connector-curvature="0" /><path
         d="M 6341.49,63.4961 V 4.49609 H 6191.1 V 25.6563 h 29.18 V 212.273 h -29.18 v 21.165 h 81.46 v -21.165 h -29.18 V 25.6563 h 75.03 v 37.8398 h 23.08"
         style="fill:#75828b;fill-opacity:1;fill-rule:nonzero;stroke:none"
         id="path72"
         inkscape:connector-curvature="0" /><path
         d="m 6473.26,178.598 c -2.88,25.988 -21.8,40.722 -45.52,40.722 -23.08,0 -43.93,-16.023 -43.93,-40.078 0,-12.187 5.12,-24.371 15.06,-31.742 10.27,-7.691 25.66,-10.578 38.16,-13.465 16.68,-3.844 32.38,-7.699 45.86,-19.242 14.1,-11.543 21.47,-28.5352 21.47,-46.4922 0,-15.7149 -2.89,-28.5352 -13.14,-41.3633 C 6476.8,8.65625 6458.52,0 6434.14,0 6412.99,0 6394.06,8.98047 6382.2,26.9375 V 4.49609 h -19.23 V 66.0586 h 19.23 c 2.89,-27.2539 22.46,-45.2148 50.99,-45.2148 25.97,0 48.09,18.5976 48.09,45.2148 0,33.3398 -25.97,41.0464 -53.22,47.7694 -15.72,4.176 -30.14,7.059 -43.62,17 -15.7,11.543 -23.73,28.535 -23.73,47.77 0,16.363 5.46,27.582 11.87,36.242 12.19,16.668 33.99,24.691 55.48,24.691 17.95,0 37.52,-8.023 45.2,-24.691 v 18.598 h 19.25 v -54.84 h -19.25"
         style="fill:#75828b;fill-opacity:1;fill-rule:nonzero;stroke:none"
         id="path74"
         inkscape:connector-curvature="0" /><path
         d="M 882.246,355.652 H 834.379 V 0 h 47.867 v 355.652"
         style="fill:#d5115c;fill-opacity:1;fill-rule:nonzero;stroke:none"
         id="path76"
         inkscape:connector-curvature="0" /><path
         d="M 646.316,355.656 H 458.18 V 574.422 H 410.324 V 0.00390625 H 458.18 V 307.695 h 188.136 c 39.579,0 71.786,-32.125 71.786,-71.785 V 0.00390625 h 47.843 V 235.91 c 0,66.121 -53.527,119.684 -119.629,119.746"
         style="fill:#d5115c;fill-opacity:1;fill-rule:nonzero;stroke:none"
         id="path78"
         inkscape:connector-curvature="0" /><path
         d="M 254.805,201.777 H 100.836 c -29.2188,0 -52.9844,23.68 -52.9844,52.95 0,29.218 23.7656,52.968 52.9844,52.968 H 340.18 v 47.961 H 100.836 C 45.1914,355.656 0,310.473 0,254.727 0,199.047 45.1914,153.875 100.836,153.875 h 153.969 c 29.218,0 52.953,-23.816 52.953,-53.004 0,-29.3124 -23.735,-52.9687 -52.953,-52.9687 L 8.60938,47.8086 V 0.0078125 H 254.805 c 55.644,0 100.812,45.1874875 100.812,100.8631875 0,55.731 -45.168,100.906 -100.812,100.906"
         style="fill:#d5115c;fill-opacity:1;fill-rule:nonzero;stroke:none"
         id="path80"
         inkscape:connector-curvature="0" /><path
         d="m 1460.01,355.656 c -66,-0.062 -119.63,-53.625 -119.63,-119.746 V 0.00390625 h 47.86 V 235.91 c 0,39.66 32.21,71.785 71.77,71.785 h 236 v 47.961 h -236"
         style="fill:#d5115c;fill-opacity:1;fill-rule:nonzero;stroke:none"
         id="path82"
         inkscape:connector-curvature="0" /><path
         d="m 1070.21,355.656 c -66,-0.062 -119.663,-53.625 -119.663,-119.746 V 0.00390625 h 47.887 V 235.91 c 0,39.66 32.236,71.785 71.776,71.785 h 235.99 v 47.961 h -235.99"
         style="fill:#d5115c;fill-opacity:1;fill-rule:nonzero;stroke:none"
         id="path84"
         inkscape:connector-curvature="0" /><path
         d="m 1831.1,47.8984 c -29.35,0 -53.03,23.668 -53.03,52.9686 l -0.09,53.004 h 295.87 c 55.67,0 100.83,45.188 100.83,100.863 0,55.731 -45.16,100.918 -100.83,100.918 H 1831.1 c -55.73,0 -100.87,-45.187 -100.87,-100.918 V 100.867 c 0,-55.6756 45.14,-100.851375 100.87,-100.851375 h 324.77 V 47.7969 H 1831.1 Z m -53.03,206.8356 c 0,29.219 23.68,52.957 53.03,52.957 h 242.75 c 29.28,0 52.95,-23.738 52.95,-52.957 0,-29.281 -23.67,-52.968 -52.95,-52.968 v -0.063 h -295.87 v 53.031 h 0.09"
         style="fill:#d5115c;fill-opacity:1;fill-rule:nonzero;stroke:none"
         id="path86"
         inkscape:connector-curvature="0" /><path
         d="m 892.43,423.164 c 0,-18.898 -15.278,-34.16 -34.071,-34.16 -18.98,0 -34.328,15.262 -34.328,34.16 0,18.875 15.348,34.168 34.328,34.168 18.793,0 34.071,-15.293 34.071,-34.168"
         style="fill:#d5115c;fill-opacity:1;fill-rule:nonzero;stroke:none"
         id="path88"
         inkscape:connector-curvature="0" /></g></g></svg>